<svg width="18" height="20" viewBox="0 0 18 20" fill="none" xmlns="http://www.w3.org/2000/svg">
<path d="M16.5 1.53846H14.25V0.769231C14.25 0.565218 14.171 0.369561 14.0303 0.225302C13.8897 0.0810437 13.6989 0 13.5 0C13.3011 0 13.1103 0.0810437 12.9697 0.225302C12.829 0.369561 12.75 0.565218 12.75 0.769231V1.53846H5.25V0.769231C5.25 0.565218 5.17098 0.369561 5.03033 0.225302C4.88968 0.0810437 4.69891 0 4.5 0C4.30109 0 4.11032 0.0810437 3.96967 0.225302C3.82902 0.369561 3.75 0.565218 3.75 0.769231V1.53846H1.5C1.10218 1.53846 0.720644 1.70055 0.43934 1.98907C0.158035 2.27758 0 2.6689 0 3.07692V18.4615C0 18.8696 0.158035 19.2609 0.43934 19.5494C0.720644 19.8379 1.10218 20 1.5 20H16.5C16.8978 20 17.2794 19.8379 17.5607 19.5494C17.842 19.2609 18 18.8696 18 18.4615V3.07692C18 2.6689 17.842 2.27758 17.5607 1.98907C17.2794 1.70055 16.8978 1.53846 16.5 1.53846ZM7.5 16.1538C7.5 16.3579 7.42098 16.5535 7.28033 16.6978C7.13968 16.842 6.94891 16.9231 6.75 16.9231C6.55109 16.9231 6.36032 16.842 6.21967 16.6978C6.07902 16.5535 6 16.3579 6 16.1538V11.2442L5.58563 11.4577C5.4076 11.549 5.2015 11.564 5.01268 11.4995C4.82385 11.4349 4.66776 11.2961 4.57875 11.1135C4.48974 10.9309 4.47509 10.7195 4.53803 10.5258C4.60097 10.3322 4.73635 10.1721 4.91437 10.0808L6.41437 9.31154C6.52876 9.25283 6.65589 9.22511 6.78367 9.23099C6.91145 9.23688 7.03563 9.27619 7.14443 9.34518C7.25322 9.41417 7.343 9.51056 7.40523 9.62517C7.46747 9.73978 7.50009 9.86881 7.5 10V16.1538ZM12.75 15.3846C12.9489 15.3846 13.1397 15.4657 13.2803 15.6099C13.421 15.7542 13.5 15.9498 13.5 16.1538C13.5 16.3579 13.421 16.5535 13.2803 16.6978C13.1397 16.842 12.9489 16.9231 12.75 16.9231H9.75C9.61072 16.9231 9.47418 16.8833 9.3557 16.8082C9.23722 16.7331 9.14147 16.6256 9.07918 16.4979C9.01689 16.3701 8.99052 16.227 9.00303 16.0848C9.01554 15.9425 9.06643 15.8066 9.15 15.6923L11.8481 12.0029C11.9095 11.9191 11.9535 11.8233 11.9775 11.7214C12.0015 11.6196 12.0049 11.5137 11.9876 11.4104C11.9703 11.3072 11.9325 11.2086 11.8767 11.1208C11.8209 11.033 11.7482 10.9578 11.6631 10.8999C11.5779 10.842 11.4821 10.8025 11.3816 10.7839C11.281 10.7653 11.1778 10.7679 11.0783 10.7917C10.9788 10.8155 10.885 10.8599 10.8028 10.9222C10.7206 10.9844 10.6517 11.0633 10.6003 11.1538C10.5525 11.2441 10.4876 11.3237 10.4093 11.3878C10.3311 11.4519 10.2411 11.4993 10.1447 11.5271C10.0483 11.555 9.94745 11.5628 9.84807 11.55C9.74869 11.5373 9.65281 11.5042 9.56609 11.4529C9.47936 11.4015 9.40355 11.3328 9.34312 11.2509C9.28269 11.169 9.23887 11.0755 9.21424 10.9759C9.18962 10.8763 9.18468 10.7727 9.19973 10.6712C9.21478 10.5696 9.24951 10.4722 9.30188 10.3846C9.54962 9.94489 9.93188 9.60127 10.3894 9.40702C10.8469 9.21276 11.3541 9.17873 11.8324 9.31018C12.3107 9.44164 12.7333 9.73125 13.0348 10.1341C13.3363 10.537 13.4998 11.0306 13.5 11.5385C13.5016 12.0401 13.3421 12.5284 13.0463 12.9279L11.25 15.3846H12.75ZM1.5 6.15385V3.07692H3.75V3.84615C3.75 4.05017 3.82902 4.24582 3.96967 4.39008C4.11032 4.53434 4.30109 4.61538 4.5 4.61538C4.69891 4.61538 4.88968 4.53434 5.03033 4.39008C5.17098 4.24582 5.25 4.05017 5.25 3.84615V3.07692H12.75V3.84615C12.75 4.05017 12.829 4.24582 12.9697 4.39008C13.1103 4.53434 13.3011 4.61538 13.5 4.61538C13.6989 4.61538 13.8897 4.53434 14.0303 4.39008C14.171 4.24582 14.25 4.05017 14.25 3.84615V3.07692H16.5V6.15385H1.5Z" fill="url(#paint0_linear_2908_513)"/>
<defs>
<linearGradient id="paint0_linear_2908_513" x1="8.33333" y1="4.28571" x2="9.68872" y2="19.9404" gradientUnits="userSpaceOnUse">
<stop stop-color="#B9EC9F"/>
<stop offset="1" stop-color="#3F7424"/>
</linearGradient>
</defs>
</svg>
